<?xml version="1.0" encoding="UTF-8" standalone="no"?>
<svg
   width="229"
   height="229"
   viewBox="0 0 229 229"
   fill="none"
   version="1.1"
   id="svg45"
   sodipodi:docname="fimionHead.svg"
   inkscape:export-filename="C:\Users\fimio\OneDrive\Pictures\Twitch\Unihorn\fimionLogo.png"
   inkscape:export-xdpi="96"
   inkscape:export-ydpi="96"
   inkscape:version="1.1 (c68e22c387, 2021-05-23)"
   xmlns:inkscape="http://www.inkscape.org/namespaces/inkscape"
   xmlns:sodipodi="http://sodipodi.sourceforge.net/DTD/sodipodi-0.dtd"
   xmlns="http://www.w3.org/2000/svg"
   xmlns:svg="http://www.w3.org/2000/svg">
  <sodipodi:namedview
     id="namedview47"
     pagecolor="#ffffff"
     bordercolor="#666666"
     borderopacity="1.0"
     inkscape:pageshadow="2"
     inkscape:pageopacity="0.0"
     inkscape:pagecheckerboard="0"
     showgrid="false"
     showguides="true"
     inkscape:guide-bbox="true"
     inkscape:zoom="3.6331878"
     inkscape:cx="97.297476"
     inkscape:cy="114.63762"
     inkscape:window-width="2560"
     inkscape:window-height="1377"
     inkscape:window-x="1912"
     inkscape:window-y="-8"
     inkscape:window-maximized="1"
     inkscape:current-layer="layer1">
    <sodipodi:guide
       position="-131.5649,140.3726"
       orientation="0.70710678,-0.70710678"
       id="guide49" />
    <sodipodi:guide
       position="-72.112981,-2.8421709e-14"
       orientation="0,-1"
       id="guide51" />
  </sodipodi:namedview>
  <defs
     id="defs43">
    <clipPath
       id="clip0_362_4">
      <rect
         width="229"
         height="229"
         fill="white"
         id="rect40" />
    </clipPath>
  </defs>
  <g
     inkscape:groupmode="layer"
     id="layer1"
     inkscape:label="Background">
    <rect
       style="fill:#000080;stroke-width:0.932154"
       id="rect96"
       width="300"
       height="300"
       x="-40"
       y="-35.000065" />
  </g>
  <g
     inkscape:groupmode="layer"
     id="layer2"
     inkscape:label="Unicorn">
    <g
       clip-path="url(#clip0_362_4)"
       id="g38">
      <path
         d="M212.991 109.018C194.154 100.306 192.777 97.325 167.011 90.7599L197.664 139.276C202.432 139.845 204.956 132.192 223.949 134.449C219.195 123.946 205.125 119.281 188.128 116.517C190.645 115.359 188.264 115.04 208.361 116.517C202.092 112.278 186.122 110.836 182.902 108.026C200.691 112.773 203.113 110.974 212.991 109.018Z"
         fill="#4E8CE9"
         stroke="black"
         stroke-width="3"
         id="path2" />
      <path
         d="M194.363 73.353C206.656 49.2903 202.599 44.0756 175.43 52.447L139.591 66.4163C159.593 79.3189 167.48 88.4924 176.876 107.585C176.876 107.585 182.071 97.4158 194.363 73.353Z"
         fill="#37508E"
         stroke="black"
         stroke-width="3"
         id="path4" />
      <path
         d="M180.332 76.5833C187.197 64.8956 185.473 62.6168 172.149 67.5481L154.452 75.4182C163.475 80.68 166.865 84.6605 170.565 93.2104L180.332 76.5833Z"
         fill="#9BB3EF"
         stroke="black"
         stroke-width="3"
         id="path6" />
      <path
         d="M22.9324 73.353C10.6396 49.2903 14.6972 44.0756 41.8662 52.447L77.7052 66.4163C57.7031 79.3189 49.8157 88.4924 40.4203 107.585C40.4203 107.585 35.2253 97.4158 22.9324 73.353Z"
         fill="#37508E"
         stroke="black"
         stroke-width="3"
         id="path8" />
      <path
         d="M38.5094 76.5833C31.6444 64.8956 33.3677 62.6168 46.6922 67.5481L64.3894 75.4182C55.3661 80.68 51.9765 84.6605 48.2756 93.2104L38.5094 76.5833Z"
         fill="#9BB3EF"
         stroke="black"
         stroke-width="3"
         id="path10" />
      <path
         d="M186.627 137.709C186.627 158.924 181.395 181.417 169.318 198.562C157.287 215.641 138.409 227.5 110.814 227.5C83.2181 227.5 64.341 215.641 52.3096 198.562C40.2321 181.417 35.0005 158.924 35.0005 137.709C35.0005 95.677 68.9484 61.6124 110.814 61.6124C152.679 61.6124 186.627 95.677 186.627 137.709Z"
         fill="#37508E"
         stroke="black"
         stroke-width="3"
         id="path12" />
      <path
         d="M67.6504 214.24C95.2978 190.318 127.73 190.318 154.314 214.24C133.047 232.054 89.981 233.072 67.6504 214.24Z"
         fill="#9BB3EF"
         stroke="black"
         stroke-width="3"
         id="path14" />
      <path
         d="M99.767 130.593H29.9983V165.336C60.7901 176.589 75.2899 179.881 99.767 165.336L104.823 141.905H118.979L124.034 165.336C146.214 177.024 167.993 178.498 192.792 165.336L193.803 129.785L124.034 130.593L118.979 133.825H104.823L99.767 130.593Z"
         fill="#D69B9B"
         stroke="#F9E1E1"
         id="path16" />
      <path
         d="M97.2444 136.252H36.8953V161.766C61.5353 170.679 73.7173 171.031 91.9506 161.766L97.2444 136.252Z"
         fill="#37508E"
         stroke="#F9E1E1"
         id="path18" />
      <path
         d="M126.557 136.252H186.906V161.766C162.266 170.679 150.084 171.031 131.851 161.766L126.557 136.252Z"
         fill="#37508E"
         stroke="#F9E1E1"
         id="path20" />
      <path
         d="M45.4341 158.901C45.4341 154.009 47.4643 149.317 51.0781 145.857C54.692 142.398 59.5934 140.454 64.7041 140.454C69.8149 140.454 74.7163 142.398 78.3301 145.857C81.9439 149.317 83.9742 154.009 83.9742 158.901L75.149 158.901C75.149 156.249 74.0486 153.706 72.0898 151.831C70.131 149.956 67.4743 148.902 64.7041 148.902C61.934 148.902 59.2773 149.956 57.3185 151.831C55.3597 153.706 54.2593 156.249 54.2593 158.901L45.4341 158.901Z"
         fill="#1D1D1D"
         id="path22" />
      <path
         d="M140.235 158.901C140.235 154.009 142.265 149.317 145.879 145.857C149.493 142.398 154.394 140.454 159.505 140.454C164.616 140.454 169.517 142.398 173.131 145.857C176.745 149.317 178.775 154.009 178.775 158.901L169.95 158.901C169.95 156.249 168.849 153.706 166.891 151.831C164.932 149.956 162.275 148.902 159.505 148.902C156.735 148.902 154.078 149.956 152.119 151.831C150.16 153.706 149.06 156.249 149.06 158.901L140.235 158.901Z"
         fill="#1D1D1D"
         id="path24" />
      <path
         d="M89.698 210.421C89.698 207.829 92.0512 205.873 94.5995 206.348L99.5078 207.261C100.988 207.537 102.152 208.686 102.446 210.163V210.163C102.899 212.441 101.156 214.564 98.8339 214.564H93.8413C91.553 214.564 89.698 212.709 89.698 210.421V210.421Z"
         fill="#1D1D1D"
         id="path26" />
      <path
         d="M132.058 210.269C132.058 207.677 129.704 205.721 127.156 206.196L122.248 207.109C120.767 207.385 119.604 208.534 119.31 210.011V210.011C118.857 212.289 120.599 214.413 122.922 214.413H127.914C130.203 214.413 132.058 212.557 132.058 210.269V210.269Z"
         fill="#1D1D1D"
         id="path28" />
      <path
         d="M147.35 67.652C70.6101 42.7417 35.6377 92.4308 41.4277 105.472C46.5365 99.6037 109.205 120.796 143.944 144.597C132.705 134.816 138.47 132.16 118.4 122.752C135.439 127.02 141.287 130.857 150.756 138.076L141.22 126.665C160.199 146.741 170.453 144.632 198.779 158.617C189.242 141.663 171.113 140.728 173.235 126.665C173.88 136.175 185.069 143.972 207.975 158.617C198.779 133.512 184.474 79.7025 147.35 67.652Z"
         fill="#4E8CE9"
         stroke="black"
         stroke-width="3"
         id="path30" />
      <path
         d="M121.415 39.1014C111.191 -10.2848 110.509 -10.4494 99.2625 39.1014L89.72 96.7187C106.758 103.237 116.306 103.164 133.343 96.7187L121.415 39.1014Z"
         fill="white"
         stroke="black"
         stroke-width="3"
         id="path32" />
      <path
         d="M118.346 26.6273C112.947 31.6548 105.642 30.4718 99.6075 37.5694L96.4314 57.6792C103.101 48.8072 118.346 50.8774 122.158 42.8926L118.346 26.6273Z"
         fill="#39834E"
         stroke="black"
         stroke-width="3"
         id="path34" />
      <path
         d="M125.642 59.8207C117.134 69.5625 103 63.7783 93.3189 75.0423L90.8386 90.8726C101.4 79.3043 119.775 86.0017 128.869 75.0423L125.642 59.8207Z"
         fill="#C14444"
         stroke="black"
         stroke-width="3"
         id="path36" />
    </g>
  </g>
</svg>
